<svg width="43" height="43" viewBox="0 0 43 43" fill="none" xmlns="http://www.w3.org/2000/svg">
<path d="M23.2178 1.16156L25.7995 3.82968C26.0607 4.09966 26.3863 4.29729 26.7451 4.4036C27.1038 4.5099 27.4836 4.52127 27.848 4.43667L31.4492 3.60056C31.7325 3.5348 32.0259 3.52687 32.3123 3.57724C32.5987 3.62761 32.8721 3.73527 33.1167 3.89387C33.3612 4.05247 33.5718 4.25881 33.7362 4.50077C33.9006 4.74273 34.0153 5.01542 34.0737 5.30279L34.8162 8.95605C34.8913 9.3257 35.0594 9.66963 35.3043 9.9548C35.5492 10.24 35.8626 10.4568 36.2145 10.5844L39.6917 11.8459C39.9653 11.9451 40.2164 12.0985 40.4303 12.2971C40.6443 12.4957 40.8167 12.7355 40.9375 13.0023C41.0583 13.2692 41.1249 13.5577 41.1335 13.8509C41.1422 14.1441 41.0926 14.4362 40.9878 14.7098L39.6554 18.1881C39.5205 18.54 39.4776 18.9211 39.5308 19.2946C39.584 19.6681 39.7315 20.0216 39.9591 20.321L42.2087 23.2795C42.3857 23.5122 42.5148 23.7782 42.5884 24.062C42.662 24.3458 42.6787 24.6416 42.6374 24.9319C42.596 25.2223 42.4976 25.5013 42.3479 25.7527C42.1981 26.0041 42 26.2228 41.7653 26.3958L38.781 28.5949C38.479 28.8174 38.2388 29.1146 38.0835 29.4579C37.9282 29.8011 37.863 30.1789 37.8941 30.5549L38.2016 34.2713C38.2258 34.5636 38.1918 34.8578 38.1016 35.1367C38.0115 35.4156 37.867 35.6735 37.6766 35.8952C37.4863 36.1169 37.2539 36.2979 36.9933 36.4277C36.7326 36.5574 36.4488 36.6333 36.1586 36.6507L32.4699 36.8722C32.0967 36.8948 31.7356 37.0138 31.4211 37.2179C31.1066 37.4219 30.8494 37.704 30.6741 38.0373L28.9419 41.3314C28.8057 41.5905 28.6194 41.8194 28.3942 42.0048C28.169 42.1902 27.9093 42.3283 27.6305 42.4109C27.3516 42.4935 27.0592 42.519 26.7704 42.486C26.4817 42.4529 26.2023 42.3619 25.9489 42.2183L22.7271 40.3924C22.4011 40.2075 22.0334 40.1105 21.6595 40.1105C21.2855 40.1105 20.9179 40.2075 20.5919 40.3924L17.3701 42.2183C17.1166 42.3619 16.8373 42.4529 16.5486 42.486C16.2598 42.519 15.9674 42.4935 15.6885 42.4109C15.4097 42.3283 15.15 42.1902 14.9248 42.0048C14.6995 41.8194 14.5133 41.5905 14.377 41.3314L12.6449 38.0373C12.4696 37.704 12.2124 37.4219 11.8979 37.2179C11.5834 37.0138 11.2222 36.8948 10.8491 36.8722L7.16036 36.6507C6.8702 36.6333 6.58644 36.5574 6.32575 36.4277C6.06506 36.2979 5.83271 36.1169 5.64237 35.8952C5.45202 35.6735 5.30749 35.4156 5.21733 35.1367C5.12717 34.8578 5.09317 34.5636 5.11733 34.2713L5.42486 30.5549C5.45602 30.1789 5.3908 29.8011 5.23549 29.4579C5.08019 29.1146 4.84001 28.8174 4.53804 28.5949L1.55366 26.3958C1.31894 26.2228 1.12088 26.0041 0.971119 25.7527C0.821359 25.5013 0.722934 25.2223 0.68162 24.9319C0.640306 24.6416 0.65694 24.3458 0.730551 24.062C0.804163 23.7782 0.933261 23.5122 1.11025 23.2795L3.35988 20.321C3.5875 20.0216 3.735 19.6681 3.78819 19.2946C3.84138 18.9211 3.79848 18.54 3.66362 18.1881L2.33117 14.7098C2.22633 14.4362 2.17679 14.1441 2.18543 13.8509C2.19407 13.5577 2.26074 13.2692 2.38151 13.0023C2.50227 12.7355 2.67468 12.4957 2.88862 12.2971C3.10257 12.0985 3.35371 11.9451 3.62727 11.8459L7.10447 10.5844C7.45635 10.4568 7.7698 10.24 8.01467 9.9548C8.25955 9.66963 8.42762 9.3257 8.50277 8.95605L9.24525 5.30279C9.30365 5.01542 9.41841 4.74273 9.58276 4.50077C9.74712 4.25881 9.95776 4.05247 10.2023 3.89387C10.4468 3.73527 10.7203 3.62761 11.0067 3.57724C11.293 3.52687 11.5865 3.5348 11.8698 3.60056L15.4709 4.43667C15.8353 4.52127 16.2151 4.5099 16.5739 4.4036C16.9326 4.29729 17.2583 4.09966 17.5195 3.82968L20.1012 1.16156C20.3042 0.952125 20.5466 0.785726 20.8142 0.672121C21.0818 0.558517 21.3692 0.5 21.6595 0.5C21.9498 0.5 22.2372 0.558517 22.5048 0.672121C22.7723 0.785726 23.0148 0.952125 23.2178 1.16156Z" fill="#3992FE"/>
<path d="M29.8388 14.7417L19.5252 28.6363L13.4188 24.0201" stroke="white" stroke-width="4.20005"/>
</svg>
