<svg width="68" height="68" viewBox="0 0 68 68" fill="none" xmlns="http://www.w3.org/2000/svg">
<circle cx="32.4629" cy="32.7295" r="18.4902" fill="white"/>
<path d="M34 0.799561C15.6787 0.799561 0.826416 15.6519 0.826416 33.9731C0.826416 52.2944 15.6787 67.1467 34 67.1467C52.3213 67.1467 67.1736 52.2944 67.1736 33.9731C67.1541 15.6601 52.3132 0.819137 34 0.799561ZM47.9707 35.0301C47.741 35.4908 47.3677 35.8643 46.9069 36.0939V36.1057L27.9506 45.584C26.7799 46.1689 25.3568 45.6942 24.7717 44.5235C24.6054 44.1907 24.5197 43.8233 24.5218 43.4514V24.4951C24.5212 23.1863 25.5815 22.125 26.8903 22.1244C27.2583 22.1242 27.6214 22.2097 27.9506 22.3743L46.9069 31.8525C48.0781 32.4362 48.5545 33.8589 47.9707 35.0301Z" fill="#E44195"/>
</svg>
