<svg width="65" height="65" viewBox="0 0 65 65" fill="none" xmlns="http://www.w3.org/2000/svg">
<circle cx="32.3351" cy="32.3454" r="32.1906" fill="white"/>
<path d="M31.3784 12.689C31.8124 11.9679 32.8578 11.9679 33.2917 12.689L39.0844 22.3145C39.2403 22.5735 39.4946 22.7583 39.7892 22.8265L50.7336 25.3613C51.5535 25.5511 51.8765 26.5454 51.3248 27.181L43.9605 35.6646C43.7623 35.8929 43.6652 36.1918 43.6913 36.493L44.6626 47.6851C44.7354 48.5235 43.8896 49.138 43.1147 48.8097L32.7706 44.4274C32.4922 44.3094 32.1779 44.3094 31.8995 44.4274L21.5554 48.8097C20.7805 49.138 19.9347 48.5235 20.0075 47.6851L20.9788 36.493C21.005 36.1918 20.9078 35.8929 20.7096 35.6646L13.3453 27.181C12.7936 26.5454 13.1167 25.5511 13.9366 25.3613L24.881 22.8265C25.1755 22.7583 25.4298 22.5735 25.5857 22.3145L31.3784 12.689Z" fill="url(#paint0_linear_1_217)"/>
<defs>
<linearGradient id="paint0_linear_1_217" x1="32.3351" y1="11.0994" x2="32.3351" y2="53.591" gradientUnits="userSpaceOnUse">
<stop stop-color="#F0AF06"/>
<stop offset="0.924279" stop-color="#FF9900"/>
</linearGradient>
</defs>
</svg>
