<svg width="153" height="44" viewBox="0 0 153 44" fill="none" xmlns="http://www.w3.org/2000/svg">
<path d="M86.58 11.4251L94.7998 8.38843L86.58 5.26534V1.01416L100.658 6.65361V10.1243L86.58 15.7637V11.4251Z" fill="#A100FF"/>
<path d="M8.84826 38.3204C5.87583 38.3204 3.42783 36.8448 3.42783 33.5489V33.3751C3.42783 29.3841 6.92468 27.9958 11.2092 27.9958H13.2198V27.2153C13.2198 25.5669 12.5213 24.6126 10.7718 24.6126C9.19856 24.6126 8.4109 25.4795 8.32383 26.695H3.95225C4.30153 23.0505 7.18689 21.3157 11.034 21.3157C14.9693 21.3157 17.8547 22.9641 17.8547 27.0415V37.9729H13.395V36.0642C12.5213 37.2787 11.0341 38.3204 8.84826 38.3204ZM13.2198 32.5936V31.0325H11.3844C9.11047 31.0325 7.97456 31.6393 7.97456 33.1149V33.2877C7.97456 34.4158 8.67311 35.1963 10.2474 35.1963C11.8217 35.1099 13.2198 34.242 13.2198 32.5936ZM28.2592 38.3204C23.7125 38.3204 20.3897 35.5439 20.3897 29.9919V29.7307C20.3897 24.1786 23.8876 21.2293 28.2592 21.2293C32.0193 21.2293 35.0798 23.1379 35.4291 27.3891H31.0575C30.7953 25.8271 29.9206 24.7864 28.3473 24.7864C26.4237 24.7864 25.0245 26.3474 25.0245 29.5579V30.0782C25.0245 33.3751 26.2485 34.8498 28.3473 34.8498C29.9206 34.8498 31.0575 33.7217 31.3197 31.9005H35.5172C35.2549 35.7177 32.7189 38.3204 28.2592 38.3204ZM45.3973 38.3204C40.8505 38.3204 37.5278 35.5439 37.5278 29.9919V29.7307C37.5278 24.1786 41.0257 21.2293 45.3973 21.2293C49.1574 21.2293 52.2179 23.1379 52.5671 27.3891H48.1956C47.9334 25.8271 47.0586 24.7864 45.4843 24.7864C43.5607 24.7864 42.1616 26.3474 42.1616 29.5579V30.0782C42.1616 33.3751 43.3866 34.8498 45.4843 34.8498C47.0586 34.8498 48.1956 33.7217 48.4578 31.9005H52.6542C52.392 35.7177 49.8569 38.3204 45.3973 38.3204ZM62.6224 38.3204C57.9005 38.3204 54.6659 35.5439 54.6659 30.0782V29.7307C54.6659 24.265 58.0757 21.2293 62.5353 21.2293C66.6447 21.2293 70.0545 23.4845 70.0545 28.9501V30.9462H59.2997C59.4748 33.8955 60.7869 35.0236 62.7105 35.0236C64.4589 35.0236 65.4207 34.0692 65.77 32.9412H70.0545C69.5301 35.9779 66.9069 38.3204 62.6224 38.3204ZM59.3877 27.9095H65.5078C65.4207 25.4795 64.2838 24.4388 62.4472 24.4388C61.0491 24.5252 59.737 25.3067 59.3877 27.9095ZM72.8528 21.6623H77.4866V24.0922C78.2743 22.5302 79.9356 21.3157 82.4707 21.3157C85.4441 21.3157 87.4548 23.1379 87.4548 27.0415V37.9729H82.821V27.7357C82.821 25.8271 82.0333 24.9591 80.372 24.9591C78.7987 24.9591 77.4866 25.9134 77.4866 27.9958V37.9729H72.8528V21.6623ZM95.9368 16.718V21.6623H99.0843V25.0465H95.9368V32.7674C95.9368 33.9818 96.4612 34.5896 97.5971 34.5896C98.2967 34.5896 98.734 34.5032 99.1714 34.3294V37.8865C98.647 38.0603 97.6852 38.233 96.5482 38.233C92.9633 38.233 91.3019 36.5846 91.3019 33.2877V25.0465H89.3784V21.6623H91.3019V18.6266L95.9368 16.718ZM116.397 37.9729H111.85V35.5439C111.063 37.106 109.489 38.3204 107.041 38.3204C104.068 38.3204 101.882 36.4982 101.882 32.681V21.6623H106.516V32.0732C106.516 33.9818 107.303 34.8498 108.877 34.8498C110.451 34.8498 111.763 33.8091 111.763 31.8131V21.6623H116.397V37.9729ZM119.806 21.6623H124.441V24.699C125.403 22.5302 126.976 21.4895 129.425 21.4895V26.0008C126.277 26.0008 124.441 26.9551 124.441 29.6443V38.0603H119.806V21.6623ZM138.781 38.3204C134.059 38.3204 130.824 35.5439 130.824 30.0782V29.7307C130.824 24.265 134.234 21.2293 138.693 21.2293C142.803 21.2293 146.213 23.4845 146.213 28.9501V30.9462H135.545C135.72 33.8955 137.031 35.0236 138.956 35.0236C140.704 35.0236 141.666 34.0692 142.016 32.9412H146.3C145.6 35.9779 143.065 38.3204 138.781 38.3204ZM135.458 27.9095H141.666C141.579 25.4795 140.442 24.4388 138.606 24.4388C137.207 24.5252 135.896 25.3067 135.458 27.9095Z" fill="black"/>
</svg>
