<svg width="63" height="54" viewBox="0 0 63 54" fill="none" xmlns="http://www.w3.org/2000/svg">
<path d="M10.3889 36.2515C17.2872 24.1742 24.1848 12.0966 31.0838 0.0199585C29.7953 8.28881 28.5016 16.5566 27.2129 24.8254C27.2037 24.9121 27.1206 24.9605 27.0706 25.024C18.264 34.4528 9.45544 43.8799 0.649719 53.3095C3.88948 47.6196 7.14429 41.9384 10.3889 36.2515Z" fill="#062F62"/>
<path d="M31.771 0.0162354C41.9276 17.7822 52.0744 35.5538 62.2302 53.3204C58.1831 49.0035 54.1464 44.6764 50.1022 40.3562C45.2968 35.2162 40.4905 30.0767 35.6847 24.9372C35.6354 24.8713 35.6439 24.782 35.6273 24.7058C34.3432 16.4758 33.0549 8.24624 31.771 0.0162354Z" fill="#062F62"/>
<path d="M17.0008 37.856C17.264 37.5708 17.5084 37.267 17.7821 36.9927C19.4992 36.9842 21.217 36.9898 22.9343 36.9896C19.9634 42.434 16.9768 47.8699 14.0061 53.3143C10.4165 53.3143 6.82739 53.3159 3.23779 53.3139C7.82692 48.1624 12.4128 43.0082 17.0008 37.856Z" fill="#062F62"/>
<path d="M24.6352 36.9888C27.6325 36.9897 30.6294 36.9869 33.6262 36.9897C33.8914 38.8006 34.16 40.6107 34.4243 42.4217C33.4329 42.4225 32.4418 42.423 31.4502 42.4225C31.4499 46.0534 31.4502 49.684 31.4499 53.3153C28.3099 53.3159 25.1699 53.3133 22.0301 53.3168C22.4847 51.7525 22.962 50.1949 23.4255 48.6332C24.0429 46.5737 24.6555 44.5128 25.2749 42.454C24.2607 42.4548 23.2468 42.454 22.2326 42.4548C23.034 40.6332 23.8338 38.8107 24.6352 36.9888Z" fill="#062F62"/>
<path d="M36.6146 37.0714C36.9437 36.9357 37.3023 36.9992 37.6473 36.9887C40.1359 36.988 42.6247 36.9898 45.1139 36.9876C46.5811 38.6268 48.0398 40.2749 49.5064 41.9154C47.4763 41.9163 45.4461 41.9139 43.416 41.917C43.0142 41.9261 42.7124 42.4058 42.9038 42.7681C43.5197 43.9228 44.1473 45.0716 44.7662 46.2252C45.0081 46.7606 45.567 47.127 46.1542 47.1359C48.5533 47.1362 50.9525 47.1359 53.3511 47.1359C53.6145 47.1401 53.8784 47.1274 54.1414 47.1412C55.9695 49.1915 57.7875 51.2524 59.6104 53.3077C53.5467 53.3093 47.4833 53.3088 41.4196 53.3082C41.1513 53.3012 40.8803 53.3405 40.6147 53.2877C39.9674 53.1873 39.3851 52.7504 39.106 52.1581C38.9685 51.8903 38.929 51.5889 38.85 51.3017C37.8042 47.1063 36.7532 42.9115 35.71 38.7154C35.5518 38.043 35.9621 37.2982 36.6146 37.0714Z" fill="#062F62"/>
</svg>
