<svg width="187" height="56" viewBox="0 0 187 56" fill="none" xmlns="http://www.w3.org/2000/svg">
<path d="M28.3751 55.2174C28.3651 54.8753 28.3061 53.299 28.2436 52.5531C28.1811 51.8068 28.049 49.4419 27.9503 48.1618C27.8512 46.8814 27.7198 45.1792 27.6579 44.379C27.5961 43.5789 27.4643 41.8503 27.3656 40.5382C27.2665 39.2258 27.1107 37.2094 27.0194 36.0572C26.9283 34.9051 26.7966 33.1765 26.7267 32.2164C26.6571 31.2563 26.5205 29.5354 26.4234 28.3929C26.3263 27.25 26.2644 26.2976 26.2859 26.2761C26.3074 26.2547 26.684 26.4685 27.1235 26.7509C27.5627 27.0337 27.9596 27.2417 28.0054 27.2132C28.0513 27.185 28.1202 25.3923 28.159 23.2294C28.3228 14.0994 28.4793 6.95121 28.5546 5.15567C28.6302 3.35628 28.6408 0.689092 28.7226 1.5072C28.7707 1.9871 28.8649 5.76701 28.9319 6.72713C28.9992 7.68725 29.1031 9.07534 29.1627 9.81139C29.2227 10.5474 29.3301 11.9878 29.4012 13.012C29.525 14.7874 29.7366 17.5876 29.9863 20.752C30.0494 21.5521 30.1828 23.3329 30.2828 24.7092C30.3832 26.0854 30.5396 28.0986 30.6306 29.1828C30.722 30.2673 30.7836 31.1672 30.7678 31.1829C30.7518 31.1989 30.4066 30.9533 30.0001 30.6376C29.5936 30.3215 29.2211 30.0631 29.1727 30.0631C28.9967 30.0631 28.939 30.8376 28.9351 33.2493C28.9332 34.6015 28.8822 37.1222 28.8223 38.8504C28.762 40.5789 28.679 43.8786 28.6373 46.1832C28.5594 50.4834 28.4068 56.3259 28.3751 55.2174Z" fill="#ED3237"/>
<path d="M149.695 28.9222C149.086 28.1733 148.588 27.5241 148.588 27.4796C148.588 27.4347 149.019 27.1648 149.547 26.8795C150.076 26.5938 152.053 25.5238 153.941 24.5014L157.375 22.6421V12.5465L155.309 12.5145C154.172 12.4972 153.243 12.5138 153.243 12.5517C153.243 12.5892 153.509 12.9223 153.833 13.2912C155.074 14.7008 155.389 15.6122 155.383 17.7841C155.38 18.9872 155.326 19.4867 155.12 20.223C154.274 23.2377 152.25 25.0339 148.946 25.7036C147.71 25.954 144.468 25.8911 143.408 25.5965C141.818 25.1544 140.515 24.2681 139.8 23.1416C139.231 22.2433 139.043 21.5509 139.044 20.3529C139.046 19.4831 139.095 19.1908 139.326 18.6952C139.825 17.6228 140.799 16.8932 142.419 16.3774C142.937 16.212 143.617 16.1642 145.998 16.1245C147.614 16.0979 148.935 16.1197 148.932 16.1732C148.93 16.2271 148.835 16.8993 148.721 17.6674L148.514 19.0642L146.95 19.0667C144.732 19.0709 144.23 19.3459 144.247 20.5481C144.26 21.5951 144.846 22.032 146.235 22.032C148.44 22.032 149.544 20.9655 149.859 18.5285C150.182 16.0267 149.379 13.943 147.669 12.8456L147.112 12.4882H137.298V27.7351H131.827V12.4882H130.256C129.392 12.4882 128.685 12.5334 128.685 12.5889C128.685 12.6443 128.791 12.8251 128.922 12.9905C129.497 13.7218 129.667 14.3392 129.665 15.6888C129.663 16.8759 129.637 17.0259 129.3 17.7492C128.191 20.133 125.104 21.6416 121.864 21.3838L120.92 21.3091L120.847 21.7701C120.691 22.7434 121.376 24.0366 122.265 24.4453C122.939 24.7553 125.903 24.7194 127.607 24.3806C128.327 24.2373 128.996 24.0895 129.094 24.052C129.25 23.992 129.268 24.2164 129.241 25.8802L129.208 27.7768L128.859 27.8713C126.95 28.3878 122.751 28.4432 120.898 27.9765C118.311 27.3251 117.086 26.2085 116.184 23.6804C115.936 22.9842 115.533 21.1626 115.533 20.7366C115.533 20.6808 115.087 20.6353 114.543 20.6353H113.554V17.6094H117.379C121.404 17.6094 122.059 17.5498 123.057 17.0923C123.938 16.6893 124.173 16.2729 124.114 15.2224C124.062 14.2982 123.734 13.6458 123.073 13.1511C122.156 12.4645 122.374 12.4882 116.935 12.4882H111.925V27.7351H106.577L106.545 26.1931C106.525 25.2423 106.468 24.6604 106.396 24.6758C106.332 24.6896 105.677 24.9092 104.941 25.1637C103.182 25.7722 102.139 25.987 100.537 26.0703C97.9472 26.2053 95.8016 25.4715 94.2878 23.9334C93.1065 22.7331 92.5882 21.1524 92.8222 19.4636C93.1838 16.8551 95.315 15.0656 98.8525 14.4004C101.101 13.9779 104.477 14.3921 105.877 15.2625L106.454 15.6212V12.4882H90.858V27.7351H85.506L85.4461 12.5462L81.7796 12.4821V27.7351H76.3093V23.1682L75.9003 23.4804C75.3075 23.9324 74.35 24.3434 73.4386 24.5364C72.3387 24.7694 69.9546 24.7601 68.9842 24.5194C66.8944 24.0001 65.002 22.435 64.0608 20.4474L63.6812 19.646L63.6104 12.4882H61.6443V9.92808L132.222 9.86941L132.252 8.82177C132.313 6.69026 133.146 5.2278 134.897 4.17823C136.031 3.49797 137.273 3.09565 139.625 2.64588C141.725 2.24452 153.335 2.33941 155.664 2.777C158.636 3.33512 160.746 4.57254 161.804 6.37802C162.238 7.11951 162.554 8.30596 162.554 9.19748V9.92743H186.763V12.4831L182.282 12.5462L182.218 16.6781H172.087L171.802 16.9637C171.391 17.3747 171.406 18.0463 171.836 18.4432C172.012 18.6061 172.261 18.7843 172.389 18.8394C172.517 18.8946 174.271 18.9709 176.288 19.0087L179.954 19.0779L180.801 19.4376C183.832 20.726 184.883 23.4849 183.453 26.3967C182.444 28.4506 180.225 29.7105 177.219 29.9346C175.747 30.0445 173.901 29.9019 171.983 29.5303C168.504 28.8568 166.08 27.9681 164.875 26.925L164.358 26.4775L164.688 25.5061C164.869 24.9717 165.175 24.0802 165.368 23.5253L165.719 22.5164L166.228 22.9047C167.464 23.8487 170.735 25.1839 172.854 25.6097C174.05 25.8501 176.382 25.8716 177.147 25.6497C177.811 25.4571 178.558 24.8031 178.683 24.3059C178.814 23.785 178.443 23.2095 177.746 22.8521C177.177 22.5604 177.116 22.5546 173.847 22.4911C170.237 22.4212 170.149 22.4065 168.61 21.6265C167.745 21.188 166.697 20.1589 166.308 19.3661C165.448 17.6132 166.353 15.6898 168.525 14.6508C169.839 14.0225 170.861 13.8846 174.211 13.8846H177.114L177.044 12.5462H162.845V27.7351H157.433V26.9785C157.433 26.5624 157.39 26.222 157.336 26.222C157.283 26.222 157.008 26.3742 156.725 26.5605C156.442 26.7467 154.994 27.6604 153.506 28.591L150.801 30.2833L149.695 28.9222ZM102.679 22.4873C103.642 22.3103 105.018 21.7602 105.86 21.2162C106.503 20.8004 106.571 20.719 106.571 20.3561C106.571 19.4787 105.128 18.4669 103.304 18.0646C101.86 17.7459 100.232 17.7905 99.5068 18.1681C97.9943 18.9548 97.7334 21.1001 99.032 22.0696C99.6943 22.5642 101.276 22.745 102.679 22.4873ZM74.1894 19.7877C75.1844 19.4379 75.8214 18.8032 76.2318 17.7524C76.3904 17.3459 76.4257 16.8211 76.4257 14.8704V12.485L68.8024 12.5465L68.7691 14.1177C68.7511 14.9819 68.7912 16.0459 68.8588 16.4822C69.0996 18.0396 70.1023 19.4562 71.2744 19.8948C71.8203 20.099 73.4774 20.0384 74.1894 19.7877ZM157.666 9.5841C157.666 8.89326 157.416 8.09823 157.066 7.67411C156.375 6.83516 154.743 6.28634 152.348 6.0879C150.542 5.93851 142.818 5.93819 141.241 6.0879C138.487 6.34885 137.277 7.21505 137.261 8.9391C137.257 9.3286 137.293 9.7104 137.341 9.78766C137.407 9.89506 139.787 9.92776 147.547 9.92776H157.666V9.5841Z" fill="#00A859"/>
<path d="M30.2193 55.7851V54.1556L38.0756 54.1787L37.2027 54.4681C35.0193 55.193 32.1383 55.7767 30.7139 55.7828L30.2193 55.7851ZM24.6326 55.6136C23.2634 55.4119 22.438 55.2353 21.0826 54.8541C18.5882 54.1524 18.534 54.1729 22.9159 54.1639L26.844 54.1556V54.6066C26.844 54.8548 26.8766 55.2212 26.9167 55.4212L26.9895 55.7851L26.3057 55.7722C25.9297 55.7652 25.1766 55.6937 24.6326 55.6136ZM143.223 53.1727C142.412 52.9489 141.325 52.3254 140.7 51.7256C139.512 50.5866 138.691 49.0549 138.151 46.975C137.851 45.8181 137.824 45.5449 137.823 43.5641C137.822 41.2466 137.945 40.4173 138.548 38.6756C139.62 35.5805 141.908 33.5846 144.645 33.355C147.211 33.1399 149.671 34.7136 150.873 37.3392C151.261 38.1868 151.614 39.4463 151.614 39.9849V40.4215H149.518C147.601 40.4215 147.423 40.4042 147.422 40.2179C147.42 39.8409 146.878 38.8433 146.504 38.5285C145.824 37.9569 144.655 37.8588 143.932 38.3127C142.788 39.0302 142.182 40.8103 142.19 43.4288C142.199 46.4544 142.898 48.1182 144.373 48.6205C145.786 49.102 147.236 48.5 147.721 47.2292C148.019 46.4499 147.932 46.3576 146.903 46.3576H146.027V42.4001H151.963V52.8752H149.194L149.111 51.9442C149.066 51.432 148.982 51.013 148.924 51.013C148.867 51.013 148.82 51.0607 148.82 51.1194C148.82 51.3124 147.454 52.6171 147.057 52.8031C145.866 53.3609 144.413 53.501 143.223 53.1727ZM82.759 53.1214C79.9604 52.3203 78.1283 50.025 77.3404 46.3335C77.1429 45.4077 77.0842 44.7387 77.082 43.3897C77.0765 39.7524 78.0517 37.0099 79.9992 35.1868C83.0133 32.3645 87.4699 32.8056 89.8662 36.1636C92.0346 39.202 92.5167 44.3697 91.0068 48.3897C90.089 50.8335 88.2871 52.5819 86.0809 53.1692C85.2278 53.3961 83.6387 53.3734 82.759 53.1214ZM172.331 52.8954V33.7875H176.003C178.972 33.7875 179.836 33.8237 180.513 33.9766C183.344 34.6159 185.115 36.6778 185.963 40.3237C186.301 41.773 186.326 44.8579 186.012 46.3576C185.552 48.5577 184.8 50.0679 183.602 51.1986C182.882 51.8779 182.514 52.1042 181.525 52.4761L180.653 52.8047L172.331 52.8954ZM124.495 52.8755V33.7875L128.656 33.7897C133.067 33.7917 133.8 33.8593 134.871 34.3629C136.463 35.1112 137.53 37.0962 137.53 39.3084C137.53 41.0908 136.978 42.5963 135.982 43.5282L135.412 44.0613L135.876 44.4819C137.02 45.5186 137.387 46.7496 137.645 50.4157C137.719 51.4634 137.827 52.4456 137.885 52.5982L137.99 52.8755H135.852C134.128 52.8755 133.702 52.8441 133.652 52.7127C133.617 52.6232 133.531 51.9029 133.46 51.1124C133.181 48.0114 133.044 47.3966 132.496 46.7952C131.993 46.2425 131.567 46.1248 130.064 46.1248H128.801V52.8755H124.495ZM64.0884 52.8752V33.7692L68.2495 33.818C72.583 33.8686 72.9834 33.9109 73.9762 34.4245C74.5065 34.6989 75.3624 35.5753 75.7535 36.2444C75.9263 36.5393 76.2123 37.1943 76.3895 37.6992C76.6922 38.5612 76.712 38.7359 76.7101 40.5379C76.7082 42.4164 76.6999 42.4799 76.3334 43.4477C75.7167 45.0753 74.8085 46.0627 73.4325 46.6015C72.8504 46.8298 72.4695 46.874 70.6064 46.9314L68.453 46.9974L68.3909 52.8752H64.0884ZM152.777 52.8752V33.7728L157.346 33.8173C162.281 33.8654 162.425 33.8821 163.551 34.5425C165.054 35.4231 166.047 37.6437 165.88 39.7476C165.748 41.4041 165.035 43.0694 164.19 43.6936C163.848 43.9465 163.713 44.2623 163.946 44.2623C164.259 44.2623 164.989 45.2343 165.277 46.0332C165.675 47.1385 165.772 47.7008 165.926 49.797C165.997 50.754 166.105 51.7881 166.166 52.0952C166.228 52.4027 166.279 52.7037 166.279 52.7646C166.279 52.8306 165.414 52.8752 164.14 52.8752H162.002L161.926 52.4036C161.885 52.1443 161.796 51.2406 161.728 50.3959C161.509 47.6418 161.21 46.8115 160.277 46.3557C159.887 46.1656 159.564 46.1248 158.444 46.1248H157.084V52.8752H152.777ZM166.977 52.8752V33.7875H171.283V52.8752H166.977ZM111.576 52.8752V33.7875H123.68V38.2102H115.766V41.0037H122.865V45.0772H115.766V48.2198H123.68V52.8752H111.576ZM94.6989 52.6877C94.6989 52.5848 94.2754 50.5026 93.758 48.0614C93.2403 45.6199 92.7193 43.1509 92.6001 42.5748C92.4805 41.9987 92.2478 40.8988 92.0824 40.1307C91.9169 39.3623 91.6816 38.2364 91.5595 37.6283C91.3194 36.4316 90.9276 34.622 90.7975 34.1074L90.7164 33.7875H95.0297L95.0961 34.1074C95.1326 34.2834 95.3487 35.6321 95.576 37.1045C95.8033 38.5769 96.0947 40.4622 96.2235 41.2944C96.3521 42.1266 96.5358 43.3208 96.6316 43.9478C96.7272 44.5749 96.8484 45.2035 96.9006 45.3446C96.9897 45.586 96.9993 45.5805 97.0644 45.2519C97.1026 45.0596 97.3465 43.4884 97.6072 41.7602C97.8675 40.0317 98.1521 38.1723 98.2396 37.6283C98.3272 37.0843 98.4945 35.9972 98.6118 35.2131L98.825 33.7875H100.711C102.407 33.7875 102.604 33.808 102.658 33.9911C102.691 34.1033 102.904 35.4519 103.132 36.9881C103.359 38.5243 103.622 40.2529 103.716 40.8289C103.809 41.405 103.996 42.6347 104.132 43.5615C104.267 44.488 104.419 45.3215 104.471 45.4138C104.531 45.5206 104.613 45.2699 104.698 44.7182C104.771 44.2434 104.88 43.567 104.941 43.215C105.001 42.863 105.212 41.5272 105.408 40.2471C105.605 38.9667 105.895 37.1292 106.052 36.1636C106.209 35.198 106.338 34.2684 106.338 34.0978V33.7875H110.724L110.464 35.0387C110.321 35.7267 109.752 38.4371 109.199 41.0617C108.266 45.5007 108.013 46.6859 107.726 47.9579C107.665 48.2301 107.512 48.9635 107.387 49.5874C107.042 51.3086 106.801 52.4456 106.733 52.6716C106.677 52.856 106.468 52.8752 104.526 52.8752C102.763 52.8752 102.381 52.8464 102.381 52.712C102.381 52.6223 102.175 51.1162 101.923 49.3659C101.671 47.6152 101.322 45.1352 101.146 43.8552C100.971 42.5748 100.789 41.4816 100.74 41.4258C100.693 41.3704 100.62 41.5797 100.578 41.8916C100.537 42.2032 100.431 42.9822 100.343 43.6224C100.255 44.2623 100.127 45.2051 100.058 45.7174C99.9893 46.2294 99.7505 48.0002 99.5274 49.6525C99.3043 51.3047 99.1219 52.7059 99.1219 52.7659C99.1219 52.8303 98.2121 52.8752 96.9105 52.8752C94.9547 52.8752 94.6989 52.8537 94.6989 52.6877ZM15.2632 52.5091C13.9626 51.8282 13.9626 51.8279 15.2901 51.8279H16.4743L16.5955 51.3913C16.6622 51.1511 16.717 50.8892 16.7173 50.8094C16.7179 50.6953 17.7704 50.6639 21.5897 50.6639H26.4615L26.5365 51.3794C26.5776 51.7727 26.6112 52.2703 26.6112 52.4851V52.8752L15.9617 52.8749L15.2632 52.5091ZM30.2975 52.7912C30.2667 52.7412 30.2699 52.2417 30.3049 51.6811L30.3687 50.6616L40.6059 50.7222L41.0144 51.7695L42.8448 51.8859L41.3343 52.8172L35.8438 52.8496C32.8243 52.8672 30.3283 52.8412 30.2975 52.7912ZM30.452 49.3835V47.1722H39.7375L40.0469 48.2198L47.6195 48.2285L46.3811 49.3835H30.452ZM10.0548 48.8513C9.75086 48.5609 9.50178 48.3 9.50178 48.2714C9.50178 48.2429 11.2794 48.2198 13.4519 48.2198H17.402L17.5591 47.1722H26.1259L26.2031 48.0743C26.2454 48.5702 26.2894 49.0549 26.3003 49.1508C26.3179 49.3043 25.368 49.3287 18.4638 49.3524L10.6078 49.3793L10.0548 48.8513ZM85.934 48.2705C87.1766 47.2898 87.7857 44.2126 87.3131 41.3021C86.8881 38.6843 85.5067 37.5148 83.6041 38.163C82.2545 38.6231 81.4915 40.5417 81.5027 43.4477C81.5114 45.7264 81.9826 47.2844 82.91 48.1006C83.5079 48.6269 83.6608 48.6728 84.712 48.6426C85.3836 48.6234 85.5522 48.5718 85.934 48.2705ZM179.97 47.9278C181.023 47.4033 181.547 46.3951 181.771 44.4633C181.954 42.895 181.785 41.5118 181.281 40.4564C180.585 38.9965 179.802 38.5371 177.888 38.4647L176.637 38.4172V48.2198H178.011C179.244 48.2198 179.445 48.1897 179.97 47.9278ZM30.5684 44.6989V43.5061L34.2637 43.5368C36.2961 43.5541 38.1763 43.5958 38.4417 43.6295C38.8909 43.6869 38.9303 43.7215 39.005 44.1222C39.0495 44.3594 39.1396 44.6188 39.206 44.6989C39.299 44.8118 40.5954 44.8445 44.9638 44.8445H50.6018L49.8497 45.8918H30.5684V44.6989ZM6.78266 45.3971L6.37168 44.9025L12.2616 44.8724C16.1281 44.8525 18.2019 44.8005 18.2977 44.721C18.3779 44.6544 18.4776 44.353 18.5192 44.051L18.5946 43.5019L21.8173 43.5365C23.5898 43.5551 25.2071 43.5971 25.4116 43.6298C25.8155 43.6936 25.8062 43.6664 25.9601 45.2808L26.0181 45.8918H7.19331L6.78266 45.3971ZM71.47 42.4241C72.2935 42.1385 72.5173 41.7798 72.5612 40.6757C72.6064 39.5357 72.3955 39.077 71.654 38.7019C71.185 38.465 70.9901 38.4407 69.7918 38.4692L68.453 38.5012L68.4197 40.3051C68.4014 41.2973 68.4155 42.227 68.4511 42.3712C68.513 42.6219 68.5665 42.6328 69.7065 42.628C70.5163 42.6245 71.0805 42.5591 71.47 42.4241ZM31.2378 42.1972L30.6848 42.1545V40.1888H38.0856L38.3658 41.2364H52.9122L52.4022 42.2863L42.0963 42.2629C36.4282 42.25 31.5417 42.2202 31.2378 42.1972ZM4.38315 41.823C4.25396 41.5695 4.14817 41.3342 4.14817 41.2999C4.14817 41.2659 7.53505 41.2245 11.6746 41.2082L19.2011 41.178L19.5307 40.1888H25.4366L25.494 40.567C25.5257 40.7751 25.5809 41.2466 25.6168 41.6147L25.6822 42.2837H4.61845L4.38315 41.823ZM132.411 41.9551C132.957 41.6692 133.34 40.9104 133.34 40.1134C133.34 39.3646 133.214 39.017 132.806 38.6384C132.364 38.2287 131.705 38.0938 130.146 38.0938H128.801V42.1673H130.403C131.728 42.1673 132.076 42.1308 132.411 41.9551ZM160.801 41.9548C161.438 41.6131 161.642 41.1126 161.6 39.9929C161.568 39.1251 161.535 39.0087 161.229 38.6897C160.794 38.2358 160.124 38.0938 158.416 38.0938H157.084V42.1673H158.744C160.13 42.1673 160.47 42.1324 160.801 41.9548ZM2.7059 38.3243C2.60267 38.0669 2.51868 37.8312 2.51868 37.8005C2.51868 37.7697 6.46881 37.7447 11.2967 37.7447H20.075L20.151 37.3664C20.3234 36.5101 20.093 36.5807 22.7108 36.5807H25.0795L25.1401 36.9009C25.1731 37.0769 25.234 37.5745 25.2747 38.0066L25.3494 38.792H2.89311L2.7059 38.3243ZM30.8011 38.792V36.5768L37.028 36.639L37.2806 37.6863L54.5301 37.7463L54.1737 38.792H30.8011ZM1.59895 34.9339C1.52842 34.7322 1.47104 34.4966 1.47104 34.4101C1.47104 34.2793 3.10533 34.253 11.1874 34.253H20.9037L21.1454 33.089H22.9403C23.9274 33.089 24.7583 33.1284 24.7862 33.1765C24.8144 33.2242 24.8743 33.7218 24.9199 34.2821L25.0026 35.3006H1.72654L1.59895 34.9339ZM30.9175 35.3006V33.5493L31.835 34.1921C32.3393 34.5457 32.8153 34.8348 32.8923 34.8348C32.9964 34.8348 33.0115 34.6098 32.9503 33.9587L32.8682 33.0822L36.097 33.1473L36.3493 34.1946L45.9785 34.2244C55.0741 34.2527 55.6041 34.2655 55.547 34.4572C55.514 34.5691 55.4524 34.8044 55.4104 34.9804L55.3341 35.3006H30.9175ZM32.6634 31.4184C32.6634 31.204 32.6297 30.7061 32.5887 30.3128L32.514 29.5973H35.0888L35.4754 30.7613H56.0577V31.8089H32.6634V31.4184ZM0.962608 31.547C0.923818 31.4027 0.89144 31.1674 0.890799 31.0238L0.888875 30.7625L21.6449 30.7029L21.8971 29.6556L23.1092 29.6223C23.7757 29.6037 24.3605 29.63 24.4082 29.6803C24.456 29.7306 24.532 30.2301 24.5775 30.7904L24.6599 31.8089H1.03249L0.962608 31.547ZM32.3925 28.2297C32.3639 28.1819 32.3027 27.7084 32.2569 27.1779L32.1729 26.2129L34.3428 26.2803L34.4512 26.7457C34.5105 27.0019 34.6173 27.25 34.6878 27.2968C34.7586 27.3439 39.6179 27.3834 45.4861 27.3843L56.1554 27.3859L56.2318 27.7321C56.2734 27.9229 56.2747 28.1322 56.234 28.1979C56.1474 28.338 32.4755 28.3698 32.3925 28.2297ZM0.772827 28.3172V27.3859L11.6259 27.3843C17.5953 27.3834 22.5383 27.3439 22.6104 27.2968C22.6829 27.25 22.7791 26.9887 22.8246 26.7169L22.9073 26.2222H23.5372C24.111 26.2222 24.1675 26.2453 24.1729 26.4841C24.1761 26.6281 24.2181 27.0993 24.2662 27.5315L24.3537 28.3172H0.772827ZM1.00717 24.5636C1.00781 24.4196 1.04019 24.1837 1.07898 24.0398L1.14918 23.7778H11.2031C19.8794 23.7778 21.2573 23.7548 21.2573 23.6102C21.2573 23.5179 21.2073 23.4118 21.1464 23.3739C21.0851 23.3361 20.9245 23.1498 20.7892 22.9597L20.543 22.6142H26.4948L26.4865 23.1668C26.4714 24.194 26.4509 24.1981 25.2145 23.4259C24.6063 23.0457 24.0466 22.7341 23.9706 22.7328C23.8825 22.7315 23.8491 22.8674 23.8789 23.1088C23.9043 23.3169 23.9498 23.7881 23.9796 24.1561L24.0338 24.8255H1.00556L1.00717 24.5636ZM32.0789 24.7572C32.0777 24.6985 32.0075 24.1927 31.9231 23.6323L31.7702 22.6142H34.1515C36.8013 22.6142 36.6122 22.5337 35.9371 23.3704L35.6556 23.7198L55.8737 23.8362L55.9567 24.2427C56.0025 24.4664 56.024 24.6649 56.0051 24.6841C55.9105 24.7787 32.0812 24.8511 32.0789 24.7572ZM1.74385 20.8686L1.86823 20.4025H20.0388L20.452 19.2388H26.6202L26.5529 21.2754L1.61947 21.3347L1.74385 20.8686ZM31.6151 21.0719C31.6148 20.9279 31.5808 20.4564 31.5401 20.0242L31.466 19.2388H36.2753L36.4394 19.6171C36.5298 19.8252 36.6321 20.0871 36.6667 20.1989C36.726 20.3906 37.2691 20.4025 45.9214 20.4025C50.9766 20.4025 55.136 20.4419 55.1642 20.49C55.1924 20.5378 55.2521 20.7474 55.2966 20.9555L55.3777 21.3338H31.616L31.6151 21.0719ZM31.2253 17.1265C31.1839 16.7332 31.1502 16.2866 31.1502 16.1347V15.858L35.1465 15.9215L35.4761 16.9108H53.8415L54.3166 17.8421H31.2999L31.2253 17.1265ZM2.95306 17.3766L3.13579 16.9108H21.3278L21.7462 15.7471H26.8744L26.8023 16.1834C26.7625 16.4235 26.7295 16.8951 26.7289 17.2311L26.7276 17.8421H2.77001L2.95306 17.3766ZM30.8758 13.7512C30.8348 13.3579 30.8011 12.8866 30.8011 12.7039V12.3718H33.8956L34.2563 13.3611L51.9767 13.4207L52.2714 13.8544C52.4336 14.0929 52.566 14.3282 52.566 14.3773C52.566 14.4267 47.7025 14.4667 41.7584 14.4667H30.9508L30.8758 13.7512ZM4.49727 14.2988C4.49727 14.2705 4.60723 14.0609 4.74155 13.8333L4.98583 13.4194H22.6258L22.7659 13.0411C23.0496 12.2746 22.9313 12.3163 24.9272 12.2814C25.9396 12.2637 26.8154 12.2968 26.8734 12.3548C26.9328 12.4141 26.943 12.8719 26.8962 13.4053L26.8138 14.3504H15.6555C9.51845 14.3504 4.49727 14.3273 4.49727 14.2988ZM49.2448 11.8127L48.6585 11.0334L30.6021 10.9737L30.5277 10.1887C30.487 9.75716 30.4533 9.25963 30.453 9.08363L30.452 8.7637H32.6153L32.9759 9.75299L49.3083 9.81262L51.3895 12.4298L50.9592 12.5106C49.9802 12.694 49.8757 12.6516 49.2448 11.8127ZM5.84177 12.1602C5.9482 11.9797 6.40309 11.3905 6.85222 10.8506L7.66905 9.86936L23.9623 9.75299L24.3714 8.70535L27.0767 8.63996V10.8574L8.40477 10.917L7.14459 12.4881H5.64782L5.84177 12.1602ZM45.6409 8.06548L44.826 7.37016L30.2517 7.36759L30.1783 6.75625C30.1379 6.42029 30.1045 5.94904 30.1039 5.70893L30.1029 5.27231H31.3602L31.7904 6.31899L45.5902 6.31995L46.7834 7.35445C48.4975 8.84031 48.4658 8.76434 47.3717 8.76241L46.4555 8.76113L45.6409 8.06548ZM9.4274 8.11742C9.73868 7.83114 10.3205 7.30957 10.7206 6.95822L11.4483 6.31963H25.21L25.7383 5.21396L26.4243 5.17838C26.802 5.15883 27.1491 5.18511 27.1966 5.23673C27.2437 5.28802 27.2556 5.76215 27.2229 6.29046L27.1632 7.25058H12.2228L10.6078 8.63964L8.86191 8.63771L9.4274 8.11742ZM12.9935 5.22102C12.9935 5.12581 15.1401 3.83902 16.0476 3.38989L16.9484 2.94429H26.4631L26.6644 2.3913C26.7753 2.08739 26.9395 1.67353 27.0296 1.47189C27.1196 1.26992 27.1931 1.05738 27.1931 0.999359C27.1931 0.941335 27.2585 0.804129 27.3386 0.694171C27.4575 0.531319 27.4784 0.733923 27.453 1.80689C27.4361 2.5285 27.3944 3.28891 27.3604 3.49696L27.2988 3.87524H17.9108L15.1571 5.27199H14.0754C13.4804 5.27199 12.9935 5.24891 12.9935 5.22102ZM40.9272 4.87993C40.5748 4.67572 39.9561 4.36604 39.5519 4.19197L38.8168 3.87524H29.7865L29.7032 2.23518C29.6573 1.33308 29.6461 0.568826 29.6782 0.536769C29.7105 0.50439 29.7881 0.653458 29.8513 0.867282C29.9141 1.08143 30.0972 1.6232 30.2578 2.07136L30.5498 2.88595L40.1058 2.94686L41.2439 3.54184C42.3973 4.14452 44.0694 5.14119 44.0694 5.22583C44.0694 5.25115 43.5065 5.26718 42.8185 5.26173C41.6321 5.25179 41.534 5.23192 40.9272 4.87993Z" fill="#2957A4"/>
</svg>
